<?xml version="1.0" encoding="UTF-8"?>
<svg version="1.1" xmlns="http://www.w3.org/2000/svg" width="703" height="706">
<path d="M0 0 C1.2379985 -0.00365067 2.47599701 -0.00730133 3.75151062 -0.01106262 C7.10583447 -0.01771614 10.45959004 -0.01114187 13.81385708 0.00226951 C17.36640291 0.01374782 20.91893748 0.00946328 24.47149658 0.00752258 C30.44605243 0.00664332 36.42049406 0.01763084 42.39501953 0.03613281 C49.22832974 0.05717797 56.06147155 0.06083296 62.89480758 0.05457085 C69.5433401 0.04879753 76.19181539 0.05462231 82.84033966 0.0657444 C85.63227689 0.07029855 88.42417802 0.0713053 91.21611786 0.06915855 C113.87471985 0.05880625 136.55032851 0.6643899 158.92285156 4.55981445 C160.78840698 4.88018677 160.78840698 4.88018677 162.69165039 5.20703125 C199.78994944 11.8937798 235.21988831 27.3203832 262.32324219 53.93286133 C263.74816677 55.3238142 265.20229086 56.68465937 266.65722656 58.04418945 C295.99832355 86.05913517 309.75748796 125.98373442 314.79785156 165.37231445 C314.95253906 166.5502356 314.95253906 166.5502356 315.11035156 167.75195312 C321.32166829 223.72589931 311.83812105 284.94972138 276.04785156 329.8527832 C241.88731791 371.74949455 192.41078074 390.73540326 139.81103516 396.71166992 C133.81499525 397.28507609 127.81554287 397.6306423 121.79785156 397.87231445 C120.8274292 397.91364502 119.85700684 397.95497559 118.85717773 397.99755859 C111.52186984 398.28649702 104.18813854 398.45235584 96.84863281 398.5871582 C94.89876288 398.62491132 92.94889309 398.66267179 90.99902344 398.70043945 C87.10327857 398.77530177 83.20759413 398.83688286 79.31152344 398.8918457 C77.49055213 398.92527952 75.66958816 398.95911637 73.84863281 398.9934082 C72.59062614 399.00596901 72.59062614 399.00596901 71.3072052 399.01878357 C70.13142159 399.04380699 70.13142159 399.04380699 68.93188477 399.06933594 C68.25148636 399.0796434 67.57108795 399.08995087 66.87007141 399.10057068 C64.72834706 399.2721826 64.72834706 399.2721826 62.70385742 400.37507629 C58.23846608 401.90744025 53.85605988 401.64994488 49.16772461 401.63110352 C47.56193542 401.63636047 47.56193542 401.63636047 45.92370605 401.64172363 C42.38559478 401.65052408 38.84768362 401.64469637 35.30957031 401.63793945 C32.8472337 401.63928688 30.38489735 401.64122807 27.92256165 401.64373779 C22.76027902 401.64668702 17.5980656 401.64239889 12.43579102 401.63305664 C5.82835451 401.62168027 -0.77891919 401.62821144 -7.38634968 401.64020157 C-12.47278563 401.64744086 -17.55918322 401.6451224 -22.64562035 401.63994598 C-25.08120938 401.63861428 -27.51680193 401.64024037 -29.95238686 401.64490509 C-33.36296381 401.65000224 -36.77328025 401.64221428 -40.18383789 401.63110352 C-41.18515244 401.63515198 -42.18646698 401.63920044 -43.21812439 401.64337158 C-50.75016733 401.59807336 -57.95951458 401.0441625 -64.20214844 396.37231445 C-70.03456881 389.39923955 -72.7948167 380.13541375 -75.78173828 371.68359375 C-76.58569732 369.41064509 -77.40631539 367.14422504 -78.22949219 364.87817383 C-78.74999144 363.42995366 -79.26955787 361.98139781 -79.78808594 360.5324707 C-80.03174896 359.85749039 -80.27541199 359.18251007 -80.52645874 358.48707581 C-81.52834883 355.63774387 -82.20214844 353.41820949 -82.20214844 350.37231445 C-122.13214844 350.37231445 -162.06214844 350.37231445 -203.20214844 350.37231445 C-204.19214844 353.67231445 -205.18214844 356.97231445 -206.20214844 360.37231445 C-207.74801227 364.94333458 -209.41252519 369.46833948 -211.07714844 373.99731445 C-211.49867188 375.17293945 -211.92019531 376.34856445 -212.35449219 377.55981445 C-218.70267779 394.83775081 -218.70267779 394.83775081 -226.20214844 399.37231445 C-232.61589846 401.37014033 -238.50032053 401.66357295 -245.1887207 401.64697266 C-246.2612912 401.65208359 -247.33386169 401.65719452 -248.43893433 401.66246033 C-251.96553203 401.67630045 -255.49193315 401.67540414 -259.01855469 401.6730957 C-261.47899955 401.67698486 -263.93944375 401.68131998 -266.39988708 401.68608093 C-271.54843323 401.69353052 -276.69691078 401.69326036 -281.84545898 401.68798828 C-288.43838739 401.68218644 -295.03103552 401.69914832 -301.62391758 401.72233295 C-306.70173276 401.73707101 -311.77948038 401.73794203 -316.85731316 401.73482323 C-319.288152 401.7353361 -321.71899465 401.74056752 -324.1498127 401.75063515 C-327.5483839 401.76298726 -330.9464081 401.75621539 -334.3449707 401.74462891 C-335.34516739 401.75227264 -336.34536407 401.75991638 -337.37586975 401.76779175 C-343.09402856 401.72475789 -347.15230586 401.12114393 -352.20214844 398.37231445 C-355.86642496 394.58983546 -355.53079059 390.44010985 -355.47247314 385.45422363 C-355.00524897 380.12750936 -353.223062 375.37802345 -351.38183594 370.38793945 C-350.97587189 369.24399719 -350.56990784 368.10005493 -350.15164185 366.92144775 C-349.27094514 364.44679466 -348.38444865 361.97529177 -347.48681641 359.50683594 C-346.0451316 355.541701 -344.62770684 351.5681521 -343.21386719 347.59301758 C-341.72589615 343.41306057 -340.23622478 339.23374644 -338.73822021 335.05737305 C-335.3308729 325.5576183 -331.96821376 316.04330461 -328.64746094 306.51293945 C-328.42247295 305.86728279 -328.19748497 305.22162613 -327.96567917 304.55640411 C-326.8314605 301.30059644 -325.6981408 298.04447675 -324.56524658 294.78820801 C-322.50213648 288.85940728 -320.43184675 282.93311278 -318.36182785 277.0067215 C-317.67207145 275.03192285 -316.98246092 273.05707331 -316.2928772 271.08221436 C-311.00377427 255.93617426 -305.70156613 240.79472336 -300.39990234 225.65307617 C-293.88889785 207.05682766 -287.38808544 188.45705099 -280.89422989 169.85480881 C-275.20443275 153.55616262 -269.51334993 137.25796664 -263.81542969 120.9621582 C-263.59500441 120.33169523 -263.37457912 119.70123226 -263.14747429 119.05166435 C-260.74133678 112.16994852 -258.33270987 105.28911616 -255.91870117 98.41015625 C-255.05999415 95.96266909 -254.20135136 93.5151594 -253.34277344 91.06762695 C-252.9203688 89.86352676 -252.49796417 88.65942657 -252.0627594 87.4188385 C-249.42099278 79.87865528 -246.80292103 72.33069065 -244.2011261 64.7766571 C-242.47595684 59.76887927 -240.73910008 54.76517195 -239.00204468 49.76150513 C-238.18737919 47.40671661 -237.37721961 45.05036361 -236.57192993 42.69235229 C-235.46157275 39.44220672 -234.3355556 36.19787909 -233.20605469 32.9543457 C-232.88815979 32.01029877 -232.57026489 31.06625183 -232.24273682 30.09359741 C-229.52231538 22.3653144 -225.85661198 14.31352279 -218.63964844 9.87231445 C-217.91648438 9.40825195 -217.19332031 8.94418945 -216.44824219 8.46606445 C-212.29602508 6.44411525 -208.17556096 6.24594667 -203.61224365 6.23187256 C-201.9428196 6.22330734 -201.9428196 6.22330734 -200.2396698 6.21456909 C-199.02813736 6.21345123 -197.81660492 6.21233337 -196.56835938 6.21118164 C-195.28486099 6.20621674 -194.00136261 6.20125183 -192.67897034 6.19613647 C-189.1643119 6.18305065 -185.64967253 6.17657493 -182.13499355 6.17212582 C-179.93599379 6.16918875 -177.73699917 6.16508274 -175.53800201 6.16062164 C-168.64862492 6.14695639 -161.75925965 6.13728514 -154.86986995 6.13341975 C-146.93424396 6.12894209 -138.99879048 6.11140377 -131.06321692 6.08241916 C-124.91779982 6.06075718 -118.7724311 6.05071306 -112.62697625 6.04937863 C-108.96190003 6.04833378 -105.29698619 6.04249451 -101.63195038 6.02455902 C-97.53903341 6.00491832 -93.44647463 6.00938523 -89.35351562 6.01586914 C-88.15008011 6.00665436 -86.94664459 5.99743958 -85.70674133 5.98794556 C-78.04331377 6.0259083 -71.26271354 6.68897923 -64.74902344 10.9934082 C-58.25801357 17.55497253 -54.77836712 25.29661322 -53.20214844 34.37231445 C-52.54214844 34.37231445 -51.88214844 34.37231445 -51.20214844 34.37231445 C-51.16089844 33.27918945 -51.11964844 32.18606445 -51.07714844 31.05981445 C-49.88131928 21.92949721 -44.46055706 14.69993921 -37.47167969 9.02075195 C-26.52082617 1.06677573 -13.21591924 -0.08910044 0 0 Z M-179.20214844 43.37231445 C-181.70246498 47.12278927 -181.73818398 48.93087711 -181.20214844 53.37231445 C-178.75120615 56.3531902 -176.40686846 58.23583444 -173.20214844 60.37231445 C-170.45990455 60.16137262 -168.40751783 59.46112284 -165.88964844 58.37231445 C-163.48565523 55.52313732 -163.80576736 53.15517938 -163.86621094 49.52856445 C-164.09290468 47.08117746 -164.09290468 47.08117746 -166.20214844 44.37231445 C-169.03783497 43.33457385 -171.82324457 43.18259346 -174.82714844 43.12231445 C-175.60316406 43.0965332 -176.37917969 43.07075195 -177.17871094 43.04418945 C-177.84644531 43.1524707 -178.51417969 43.26075195 -179.20214844 43.37231445 Z M-143.82714844 54.30981445 C-146.32583347 59.87506748 -147.52949342 65.5353246 -146.82714844 71.62231445 C-142.75646424 78.51116463 -135.83371512 83.17145065 -128.20214844 85.37231445 C-122.36248043 85.61563395 -117.59405687 81.94439998 -113.20214844 78.37231445 C-110.40572298 75.19968826 -109.67690951 73.03671191 -109.84667969 68.7277832 C-110.85673007 62.03481201 -112.95612811 55.81741564 -118.20214844 51.37231445 C-125.6223229 48.89892297 -137.47565495 49.62180735 -143.82714844 54.30981445 Z M-221.38964844 62.05981445 C-222.31777344 62.82293945 -223.24589844 63.58606445 -224.20214844 64.37231445 C-224.84152344 64.78481445 -225.48089844 65.19731445 -226.13964844 65.62231445 C-227.69605724 68.1858113 -227.20077334 70.43334171 -226.72949219 73.2980957 C-225.98225979 76.23720979 -224.70796306 78.75350641 -223.20214844 81.37231445 C-219.47502087 81.71932288 -215.91906469 81.88111423 -212.20214844 81.37231445 C-209.1080962 78.35193013 -208.38342705 75.96946752 -207.13964844 71.87231445 C-206.90538513 68.21733313 -206.90538513 68.21733313 -209.26464844 65.05981445 C-213.49164656 61.19256086 -216.0304518 59.22259271 -221.38964844 62.05981445 Z M35.79785156 73.37231445 C35.51590742 100.94770016 35.30513307 128.52286581 35.1761055 156.0994091 C35.11456839 168.90750562 35.03087267 181.71469996 34.89257812 194.5222168 C34.7719163 205.70221394 34.69530712 216.88155698 34.66878963 228.06218731 C34.65331983 233.96734136 34.61770911 239.87062635 34.52909088 245.77517319 C34.11304731 274.58446109 35.73931297 299.25523727 48.79785156 325.37231445 C57.1535788 325.44272878 65.50917616 325.4955786 73.86512947 325.52775097 C77.7477602 325.54321465 81.63018377 325.56408517 85.51269531 325.59863281 C106.76489954 325.78252224 128.1252559 325.95331214 148.67285156 319.68481445 C149.52596924 319.43207764 150.37908691 319.17934082 151.25805664 318.91894531 C176.36309403 311.11802448 197.50652525 294.36808159 209.95019531 271.0949707 C214.61223868 261.9426562 217.76849983 252.37107074 220.04785156 242.37231445 C220.19899414 241.71005859 220.35013672 241.04780273 220.50585938 240.36547852 C223.38284779 226.69491282 224.17745834 213.10570271 224.11035156 199.18481445 C224.10819641 198.37560547 224.10604126 197.56639648 224.1038208 196.73266602 C223.97332286 166.11317224 218.64240292 135.71496411 198.79785156 111.37231445 C198.11078125 110.5215332 197.42371094 109.67075195 196.71582031 108.79418945 C177.09544596 85.74466859 147.12282549 75.91125183 117.79785156 73.37231445 C111.33563945 73.0501051 104.86342565 73.13729532 98.39550781 73.17700195 C96.57848773 73.18074269 94.76146559 73.18358463 92.94444275 73.18557739 C88.21483566 73.19313045 83.48535591 73.212705 78.75579834 73.23498535 C73.90850546 73.25562561 69.06119156 73.26461756 64.21386719 73.2746582 C54.74180674 73.29596071 45.26983983 73.32999302 35.79785156 73.37231445 Z M-159.20214844 90.37231445 C-159.73667403 91.61652093 -160.25423454 92.86802381 -160.76464844 94.12231445 C-161.0546875 94.8184082 -161.34472656 95.51450195 -161.64355469 96.23168945 C-162.29043218 98.71063256 -162.1125467 99.99714133 -161.20214844 102.37231445 C-159.51963966 103.96362193 -159.51963966 103.96362193 -157.20214844 104.37231445 C-154.90379858 103.24986452 -153.01736962 102.18753564 -151.20214844 100.37231445 C-150.79736661 96.72927798 -150.7438968 94.99422739 -152.95214844 91.99731445 C-155.28002619 89.98198742 -155.28002619 89.98198742 -159.20214844 90.37231445 Z M-86.20214844 110.37231445 C-87.86408917 113.69619592 -87.81430782 115.69935815 -87.20214844 119.37231445 C-84.48293515 121.8810447 -81.45418327 123.6332296 -78.20214844 125.37231445 C-77.49574219 125.76032227 -76.78933594 126.14833008 -76.06152344 126.5480957 C-73.38272458 127.73554646 -71.93766497 127.32974524 -69.20214844 126.37231445 C-66.34171661 124.28497231 -65.3527956 123.10881168 -64.63964844 119.62231445 C-65.42764393 115.06945159 -66.63376476 111.45931018 -70.20214844 108.37231445 C-75.81149974 107.12766079 -81.05728833 107.85423151 -86.20214844 110.37231445 Z M-246.20214844 122.37231445 C-248.70767152 126.13059907 -248.57410553 127.90882939 -248.20214844 132.37231445 C-246.96747378 136.48789664 -246.08685358 138.70339106 -242.63964844 141.30981445 C-238.07193119 142.72165433 -233.93508765 143.23581111 -229.20214844 142.37231445 C-226.61092939 140.36247876 -226.61092939 140.36247876 -225.20214844 137.37231445 C-224.62464844 136.42356445 -224.04714844 135.47481445 -223.45214844 134.49731445 C-221.94789665 130.73668499 -221.6281972 128.38997313 -222.20214844 124.37231445 C-224.26013651 120.9265643 -226.86244251 118.59878507 -230.20214844 116.37231445 C-236.43770839 115.15561983 -241.36566331 118.79714289 -246.20214844 122.37231445 Z M-143.20214844 138.37231445 C-145.56486805 143.61200482 -147.3731245 148.85821201 -149.00537109 154.36523438 C-149.26754929 155.23765274 -149.52972748 156.11007111 -149.79985046 157.00892639 C-150.65927468 159.87237255 -151.51281306 162.7375358 -152.36621094 165.6027832 C-152.96453937 167.60111857 -153.56320786 169.59935215 -154.16220093 171.5974884 C-155.4136835 175.77518993 -156.6625121 179.95367164 -157.90917969 184.1328125 C-159.50743286 189.49053395 -161.11005117 194.84693616 -162.71436501 200.20284557 C-164.24551101 205.31491691 -165.77479073 210.42754581 -167.30371094 215.5402832 C-167.59546833 216.51557669 -167.88722572 217.49087017 -168.18782425 218.495718 C-169.01213473 221.2527033 -169.83515262 224.0100708 -170.65771484 226.76757812 C-170.90187637 227.58376617 -171.1460379 228.39995422 -171.39759827 229.24087524 C-171.73393028 230.36985985 -171.73393028 230.36985985 -172.07705688 231.52165222 C-172.27134592 232.17256427 -172.46563496 232.82347631 -172.66581154 233.49411297 C-173.2219018 235.44148888 -173.71096084 237.40756407 -174.20214844 239.37231445 C-153.74214844 239.37231445 -133.28214844 239.37231445 -112.20214844 239.37231445 C-113.44731527 233.7690637 -114.68131386 228.50152591 -116.35351562 223.05859375 C-116.55874847 222.38714828 -116.76398132 221.71570282 -116.97543335 221.02391052 C-117.64673608 218.83044712 -118.32286264 216.63850339 -118.99902344 214.4465332 C-119.47535543 212.89314887 -119.95136223 211.33966479 -120.42706299 209.78608704 C-121.67773949 205.70434394 -122.9324311 201.62384659 -124.18811035 197.54364014 C-126.18032081 191.06712595 -128.16572304 184.58851816 -130.15266418 178.11038589 C-130.86815959 175.7781471 -131.58413532 173.44605616 -132.3001709 171.11398315 C-135.64574054 160.2134501 -138.95354433 149.30218936 -142.20214844 138.37231445 C-142.53214844 138.37231445 -142.86214844 138.37231445 -143.20214844 138.37231445 Z M-72.57714844 158.49731445 C-74.39067628 161.7058637 -75.00527498 163.69436032 -75.20214844 167.37231445 C-73.78637691 170.607125 -73.78637691 170.607125 -71.57714844 173.62231445 C-70.88363281 174.6587207 -70.19011719 175.69512695 -69.47558594 176.76293945 C-67.08605724 179.50556001 -65.72282983 180.5663079 -62.20214844 181.37231445 C-58.5526182 180.13518556 -55.93762106 179.10778708 -53.20214844 176.37231445 C-52.19302052 171.66052168 -51.66473556 167.05620815 -53.13964844 162.43481445 C-57.13980589 158.434657 -61.3923854 156.64377891 -66.95214844 155.80981445 C-70.31584136 156.09634685 -70.31584136 156.09634685 -72.57714844 158.49731445 Z M-220.82714844 177.55981445 C-222.23867187 177.92139648 -222.23867187 177.92139648 -223.67871094 178.2902832 C-226.66099018 179.56906238 -227.65021538 180.54115222 -229.20214844 183.37231445 C-229.92261517 186.03756486 -229.92261517 186.03756486 -230.13964844 188.87231445 C-230.25179687 189.81075195 -230.36394531 190.74918945 -230.47949219 191.71606445 C-230.42329571 194.46244316 -230.42329571 194.46244316 -228.58496094 196.52075195 C-225.89314459 198.61242564 -223.21998258 200.03921329 -220.13964844 201.49731445 C-216.98700341 203.00154311 -214.1121189 204.43233414 -211.20214844 206.37231445 C-207.35115855 206.37231445 -206.24045093 205.40974644 -203.45214844 202.68481445 C-200.9950415 199.8000465 -200.42883726 197.13349834 -200.20214844 193.37231445 C-201.21332735 190.23793433 -201.21332735 190.23793433 -202.88964844 187.24731445 C-203.66888672 185.72750977 -203.66888672 185.72750977 -204.46386719 184.17700195 C-206.70484491 180.56122217 -208.49118653 177.96028345 -212.60058594 176.5480957 C-215.61552786 176.34438341 -217.9129514 176.76904749 -220.82714844 177.55981445 Z M-79.51464844 201.99731445 C-82.44180903 204.99695712 -83.89179461 207.13770894 -84.20214844 211.37231445 C-82.82177979 214.26517999 -82.82177979 214.26517999 -80.20214844 216.37231445 C-76.70474926 217.52714884 -76.70474926 217.52714884 -73.20214844 217.37231445 C-70.23342581 215.20422585 -69.61786067 213.0298842 -68.95214844 209.49731445 C-68.78199219 208.65426758 -68.61183594 207.8112207 -68.43652344 206.94262695 C-68.18593771 204.1945368 -68.53357127 202.03707201 -69.20214844 199.37231445 C-74.05826936 197.42986609 -75.96801791 198.58488076 -79.51464844 201.99731445 Z M-76.20214844 234.37231445 C-76.45245821 236.95611623 -76.45245821 236.95611623 -76.20214844 239.37231445 C-74.54600186 239.75450212 -72.87757819 240.08626547 -71.20214844 240.37231445 C-70.87214844 240.04231445 -70.54214844 239.71231445 -70.20214844 239.37231445 C-70.48944899 237.03286709 -70.82151623 234.69840015 -71.20214844 232.37231445 C-73.52572355 232.18741439 -73.52572355 232.18741439 -76.20214844 234.37231445 Z M-53.20214844 242.37231445 C-52.20214844 244.37231445 -52.20214844 244.37231445 -52.20214844 244.37231445 Z M-219.01464844 261.55981445 C-221.72241418 265.69272005 -222.82614577 270.34016782 -222.72167969 275.27856445 C-221.50890972 280.1661186 -217.35233432 283.93011661 -213.28027344 286.66137695 C-210.41012992 287.64326816 -209.06302752 287.40719149 -206.20214844 286.37231445 C-204.07716955 284.71477356 -202.27355722 283.13876894 -200.38964844 281.24731445 C-199.88755859 280.78583008 -199.38546875 280.3243457 -198.86816406 279.84887695 C-196.15383345 277.16039711 -195.23012636 275.60009927 -194.76074219 271.77856445 C-195.1586422 268.70804397 -195.61957943 266.68902947 -197.07714844 263.99731445 C-197.42519531 263.32958008 -197.77324219 262.6618457 -198.13183594 261.97387695 C-199.12206816 260.20603711 -199.12206816 260.20603711 -201.20214844 259.37231445 C-210.51031011 258.70110341 -210.51031011 258.70110341 -219.01464844 261.55981445 Z M-122.20214844 268.37231445 C-123.28783347 270.21499313 -123.28783347 270.21499313 -123.20214844 272.37231445 C-121.84814198 275.10213278 -121.84814198 275.10213278 -120.20214844 277.37231445 C-114.61714277 277.17332738 -114.61714277 277.17332738 -110.20214844 274.37231445 C-109.7020432 271.41462269 -109.7020432 271.41462269 -110.20214844 268.37231445 C-111.8558834 266.38197804 -111.8558834 266.38197804 -114.20214844 265.37231445 C-118.45109569 265.37231445 -119.27519613 265.54629154 -122.20214844 268.37231445 Z M-81.20214844 268.37231445 C-82.62996712 270.42801669 -82.62996712 270.42801669 -83.20214844 273.37231445 C-82.3237521 276.32995276 -81.13155932 278.95773008 -79.20214844 281.37231445 C-77.21833956 282.26078857 -77.21833956 282.26078857 -75.20214844 282.37231445 C-72.73458828 280.72727434 -72.25254544 279.56932093 -71.51464844 276.68481445 C-71.41152344 275.92168945 -71.30839844 275.15856445 -71.20214844 274.37231445 C-72.29816013 273.36338314 -73.40428762 272.36543221 -74.51464844 271.37231445 C-75.43697266 270.53700195 -75.43697266 270.53700195 -76.37792969 269.68481445 C-78.23346178 268.08029948 -78.23346178 268.08029948 -81.20214844 268.37231445 Z M-165.20214844 277.37231445 C-165.36895953 280.28883619 -165.36895953 280.28883619 -165.20214844 283.37231445 C-162.8426175 285.73184539 -161.42319226 285.86372859 -158.20214844 286.37231445 C-157.18527798 281.59468807 -157.18527798 281.59468807 -158.13964844 276.93481445 C-158.49027344 276.41918945 -158.84089844 275.90356445 -159.20214844 275.37231445 C-161.66493645 275.37231445 -163.05438962 276.22684309 -165.20214844 277.37231445 Z M-262.20214844 283.37231445 C-264.61561195 288.61897427 -264.54250694 293.86861683 -263.01855469 299.3605957 C-261.68161127 302.65497782 -260.07775536 304.30937905 -257.20214844 306.37231445 C-252.75065581 308.11619816 -247.95206296 309.00563639 -243.20214844 308.37231445 C-239.41492528 305.99429061 -237.08235236 303.4295966 -235.20214844 299.37231445 C-234.76978325 296.9040817 -234.76978325 296.9040817 -235.20214844 294.37231445 C-236.88063226 292.52671553 -236.88063226 292.52671553 -239.20214844 291.05981445 C-243.4395672 288.03022686 -246.887245 284.73280526 -250.37792969 280.8762207 C-254.73250067 277.2862639 -258.64459868 280.20145489 -262.20214844 283.37231445 Z M-123.20214844 293.37231445 C-123.86214844 294.03231445 -124.52214844 294.69231445 -125.20214844 295.37231445 C-125.20214844 296.69231445 -125.20214844 298.01231445 -125.20214844 299.37231445 C-123.2561157 299.96301459 -123.2561157 299.96301459 -121.20214844 300.37231445 C-119.90581223 299.3058633 -119.90581223 299.3058633 -120.13964844 296.80981445 C-120.16027344 296.00543945 -120.18089844 295.20106445 -120.20214844 294.37231445 C-121.19214844 294.04231445 -122.18214844 293.71231445 -123.20214844 293.37231445 Z M-226.10449219 308.5559082 C-228.55969603 310.32008101 -228.55969603 310.32008101 -229.01464844 313.93481445 C-227.829862 318.94737247 -226.51067898 321.49996076 -222.20214844 324.37231445 C-220.02186448 324.72524896 -220.02186448 324.72524896 -217.70214844 324.68481445 C-216.54199219 324.70995117 -216.54199219 324.70995117 -215.35839844 324.7355957 C-212.67457121 324.28342916 -211.85856615 323.49272869 -210.20214844 321.37231445 C-208.45628933 317.35683851 -207.60337988 314.5291127 -209.20214844 310.37231445 C-215.23851593 303.19393149 -218.58463105 303.78262374 -226.10449219 308.5559082 Z M-280.86621094 341.4230957 C-285.2429212 341.63409413 -287.57836821 341.95221756 -291.26464844 344.43481445 C-294.42351793 349.22406821 -295.23796637 353.29487456 -295.13964844 358.99731445 C-293.24058208 365.83395334 -288.18183442 369.46296621 -282.38964844 372.99731445 C-281.76944824 373.38193848 -281.14924805 373.7665625 -280.51025391 374.1628418 C-278.74827541 375.24546996 -276.97631304 376.30982637 -275.20214844 377.37231445 C-274.40679687 377.86731445 -273.61144531 378.36231445 -272.79199219 378.87231445 C-269.06585476 381.00576888 -265.66392113 382.11600465 -261.35839844 381.3215332 C-255.56848257 378.77271154 -250.66447707 373.56580741 -247.20214844 368.37231445 C-246.17052721 360.46321837 -249.0257542 351.22410318 -253.38964844 344.62231445 C-255.00951228 342.52925954 -255.00951228 342.52925954 -256.20214844 341.37231445 C-257.63429054 341.27304224 -259.07125873 341.24151458 -260.50683594 341.23950195 C-261.84004883 341.23599731 -261.84004883 341.23599731 -263.20019531 341.23242188 C-269.08969433 341.26290893 -274.97727081 341.34147926 -280.86621094 341.4230957 Z " fill="#0057E7" transform="translate(355.2021484375,172.627685546875)"/>
<path d="M0 0 C1.66942406 -0.00856522 1.66942406 -0.00856522 3.37257385 -0.01730347 C4.58410629 -0.01842133 5.79563873 -0.01953918 7.04388428 -0.02069092 C8.32738266 -0.02565582 9.61088104 -0.03062073 10.93327332 -0.03573608 C14.44793175 -0.0488219 17.96257112 -0.05529763 21.4772501 -0.05974674 C23.67624986 -0.06268381 25.87524448 -0.06678982 28.07424164 -0.07125092 C34.96361874 -0.08491617 41.852984 -0.09458742 48.7423737 -0.09845281 C56.67799969 -0.10293047 64.61345317 -0.12046879 72.54902673 -0.1494534 C78.69444383 -0.17111538 84.83981255 -0.1811595 90.9852674 -0.18249393 C94.65034362 -0.18353878 98.31525747 -0.18937805 101.98029327 -0.20731354 C106.07321024 -0.22695424 110.16576902 -0.22248733 114.25872803 -0.21600342 C115.46216354 -0.2252182 116.66559906 -0.23443298 117.90550232 -0.243927 C125.56892988 -0.20596426 132.34953011 0.45710667 138.86322021 4.76153564 C144.26706114 10.22411397 146.85382288 15.95711848 149.41009521 23.14044189 C149.75592085 23.90887767 150.10174648 24.67731344 150.45805168 25.46903515 C151.50289774 28.40084312 151.65655831 30.60993559 151.65060425 33.71498108 C151.65472824 35.37867233 151.65472824 35.37867233 151.65893555 37.07597351 C151.651745 38.28294388 151.64455444 39.48991425 151.637146 40.73345947 C151.63743805 42.01190735 151.6377301 43.29035522 151.63803101 44.60754395 C151.638604 48.10512672 151.62685843 51.60257185 151.61288309 55.10012269 C151.60036677 58.75830526 151.59920452 62.4164911 151.59683228 66.07469177 C151.59062015 72.99837724 151.57421297 79.92199943 151.5541333 86.84565705 C151.53176595 94.72953186 151.52077877 102.61340972 151.51074243 110.49730837 C151.4898465 126.71172324 151.45467574 142.92607449 151.41009521 159.14044189 C150.81841553 158.35282471 150.22673584 157.56520752 149.61712646 156.75372314 C146.03723431 152.51487739 142.10103491 151.39838185 136.72259521 150.57794189 C133.20065312 150.83608069 133.20065312 150.83608069 130.91009521 153.76544189 C129.15992025 157.70333556 129.35790315 159.03945917 130.41009521 163.14044189 C131.84915416 165.91692889 131.84915416 165.91692889 133.72259521 168.45294189 C134.31685303 169.31532471 134.91111084 170.17770752 135.52337646 171.06622314 C137.565167 173.31092454 138.4221214 173.92409154 141.41009521 174.14044189 C145.12622627 173.28607506 145.12622627 173.28607506 148.41009521 171.14044189 C149.94055507 167.58151902 149.94055507 167.58151902 150.41009521 164.14044189 C150.74009521 164.14044189 151.07009521 164.14044189 151.41009521 164.14044189 C151.4078746 164.81436981 151.40565399 165.48829773 151.40336609 166.18264771 C151.27373541 207.9038175 151.41388418 249.62323694 151.72848511 291.34338379 C151.76715226 296.4958312 151.80133797 301.64827832 151.83169556 306.80078125 C151.86831618 312.95380397 151.91460024 319.10668217 151.96809578 325.25958061 C151.98649941 327.54592968 152.00169944 329.83230712 152.01345634 332.11870003 C152.03038629 335.27965914 152.05937648 338.44029622 152.09124756 341.60113525 C152.09340743 342.51146452 152.0955673 343.42179379 152.09779263 344.35970879 C152.2686442 357.63205354 155.01459161 370.26578844 164.41009521 380.14044189 C174.48437428 388.40172454 184.81785155 390.24238172 197.57025146 390.34576416 C198.34195175 390.35566376 199.11365204 390.36556335 199.90873718 390.37576294 C202.42999323 390.40705727 204.95126805 390.43200685 207.47259521 390.45684814 C209.23236549 390.47744546 210.99213113 390.49844261 212.75189209 390.51982117 C217.36149313 390.57475521 221.97113667 390.62428972 226.58081055 390.67266846 C231.29347472 390.72309412 236.00607791 390.77866972 240.71868896 390.83380127 C249.9491055 390.94103167 259.17957521 391.04255316 268.41009521 391.14044189 C268.41009521 391.80044189 268.41009521 392.46044189 268.41009521 393.14044189 C263.40087645 395.8252056 258.30629589 395.42144002 252.77996826 395.39923096 C251.17417908 395.40448792 251.17417908 395.40448792 249.53594971 395.40985107 C245.99783843 395.41865152 242.45992727 395.41282381 238.92181396 395.40606689 C236.45947735 395.40741432 233.997141 395.40935551 231.5348053 395.41186523 C226.37252267 395.41481447 221.21030925 395.41052634 216.04803467 395.40118408 C209.44059816 395.38980771 202.83332446 395.39633889 196.22589397 395.40832901 C191.13945803 395.4155683 186.05306043 395.41324984 180.96662331 395.40807343 C178.53103427 395.40674173 176.09544173 395.40836781 173.6598568 395.41303253 C170.24927984 395.41812968 166.8389634 395.41034172 163.42840576 395.39923096 C162.42709122 395.40327942 161.42577667 395.40732788 160.39411926 395.41149902 C152.86207632 395.3662008 145.65272907 394.81228995 139.41009521 390.14044189 C133.57767484 383.16736699 130.81742695 373.9035412 127.83050537 365.45172119 C127.02654633 363.17877254 126.20592826 360.91235249 125.38275146 358.64630127 C124.86225221 357.1980811 124.34268578 355.74952525 123.82415771 354.30059814 C123.58049469 353.62561783 123.33683167 352.95063751 123.08578491 352.25520325 C122.08389482 349.40587131 121.41009521 347.18633693 121.41009521 344.14044189 C81.48009521 344.14044189 41.55009521 344.14044189 0.41009521 344.14044189 C-0.57990479 347.44044189 -1.56990479 350.74044189 -2.58990479 354.14044189 C-4.13576861 358.71146202 -5.80028153 363.23646692 -7.46490479 367.76544189 C-7.88642822 368.94106689 -8.30795166 370.11669189 -8.74224854 371.32794189 C-15.09043414 388.60587825 -15.09043414 388.60587825 -22.58990479 393.14044189 C-29.00365481 395.13826778 -34.88807688 395.43170039 -41.57647705 395.4151001 C-42.64904755 395.42021103 -43.72161804 395.42532196 -44.82669067 395.43058777 C-48.35328837 395.44442789 -51.8796895 395.44353158 -55.40631104 395.44122314 C-57.8667559 395.4451123 -60.3272001 395.44944742 -62.78764343 395.45420837 C-67.93618958 395.46165796 -73.08466713 395.4613878 -78.23321533 395.45611572 C-84.82614374 395.45031388 -91.41879187 395.46727576 -98.01167393 395.4904604 C-103.08948911 395.50519846 -108.16723673 395.50606947 -113.2450695 395.50295067 C-115.67590834 395.50346354 -118.106751 395.50869496 -120.53756905 395.51876259 C-123.93614024 395.5311147 -127.33416445 395.52434283 -130.73272705 395.51275635 C-131.73292374 395.52040009 -132.73312042 395.52804382 -133.7636261 395.53591919 C-139.48178491 395.49288533 -143.5400622 394.88927137 -148.58990479 392.14044189 C-152.25418131 388.3579629 -151.91854694 384.20823729 -151.86022949 379.22235107 C-151.39300532 373.8956368 -149.61081834 369.14615089 -147.76959229 364.15606689 C-147.36362823 363.01212463 -146.95766418 361.86818237 -146.53939819 360.6895752 C-145.65870149 358.2149221 -144.772205 355.74341921 -143.87457275 353.27496338 C-142.43288795 349.30982844 -141.01546319 345.33627954 -139.60162354 341.36114502 C-138.1136525 337.18118801 -136.62398113 333.00187388 -135.12597656 328.82550049 C-131.71862925 319.32574574 -128.35597011 309.81143205 -125.03521729 300.28106689 C-124.8102293 299.63541023 -124.58524132 298.98975357 -124.35343552 298.32453156 C-123.21921685 295.06872388 -122.08589715 291.81260419 -120.95300293 288.55633545 C-118.88989283 282.62753472 -116.81960309 276.70124022 -114.7495842 270.77484894 C-114.0598278 268.80005029 -113.37021727 266.82520075 -112.68063354 264.8503418 C-107.39153062 249.7043017 -102.08932248 234.5628508 -96.78765869 219.42120361 C-90.27665419 200.8249551 -83.77584179 182.22517843 -77.28198624 163.62293625 C-71.5921891 147.32429006 -65.90110628 131.02609409 -60.20318604 114.73028564 C-59.98276075 114.09982267 -59.76233547 113.4693597 -59.53523064 112.81979179 C-57.12909313 105.93807596 -54.72046622 99.0572436 -52.30645752 92.17828369 C-51.4477505 89.73079654 -50.58910771 87.28328684 -49.73052979 84.83575439 C-49.30812515 83.63165421 -48.88572052 82.42755402 -48.45051575 81.18696594 C-45.80874913 73.64678272 -43.19067738 66.0988181 -40.58888245 58.54478455 C-38.86371319 53.53700671 -37.12685642 48.53329939 -35.38980103 43.52963257 C-34.57513554 41.17484405 -33.76497596 38.81849105 -32.95968628 36.46047974 C-31.84932909 33.21033416 -30.72331195 29.96600653 -29.59381104 26.72247314 C-29.27591614 25.77842621 -28.95802124 24.83437927 -28.63049316 23.86172485 C-25.91007172 16.13344184 -22.24436833 8.08165023 -15.02740479 3.64044189 C-14.30424072 3.17637939 -13.58107666 2.71231689 -12.83599854 2.23419189 C-8.68378143 0.21224269 -4.5633173 0.01407411 0 0 Z M24.41009521 37.14044189 C21.90977867 40.89091671 21.87405967 42.69900455 22.41009521 47.14044189 C24.8610375 50.12131764 27.20537519 52.00396188 30.41009521 54.14044189 C33.1523391 53.92950006 35.20472582 53.22925028 37.72259521 52.14044189 C40.12658842 49.29126476 39.8064763 46.92330682 39.74603271 43.29669189 C39.51933898 40.8493049 39.51933898 40.8493049 37.41009521 38.14044189 C34.57440868 37.10270129 31.78899908 36.9507209 28.78509521 36.89044189 C28.00907959 36.86466064 27.23306396 36.83887939 26.43353271 36.81231689 C25.76579834 36.92059814 25.09806396 37.02887939 24.41009521 37.14044189 Z M59.78509521 48.07794189 C57.28641018 53.64319492 56.08275023 59.30345204 56.78509521 65.39044189 C60.85577941 72.27929207 67.77852853 76.93957809 75.41009521 79.14044189 C81.24976322 79.38376139 86.01818678 75.71252742 90.41009521 72.14044189 C93.20652067 68.9678157 93.93533414 66.80483935 93.76556396 62.49591064 C92.75551359 55.80293945 90.65611554 49.58554308 85.41009521 45.14044189 C77.98992075 42.66705041 66.13658871 43.38993479 59.78509521 48.07794189 Z M-17.77740479 55.82794189 C-18.70552979 56.59106689 -19.63365479 57.35419189 -20.58990479 58.14044189 C-21.22927979 58.55294189 -21.86865479 58.96544189 -22.52740479 59.39044189 C-24.08381359 61.95393874 -23.58852969 64.20146915 -23.11724854 67.06622314 C-22.37001614 70.00533724 -21.09571941 72.52163386 -19.58990479 75.14044189 C-15.86277721 75.48745032 -12.30682104 75.64924167 -8.58990479 75.14044189 C-5.49585255 72.12005757 -4.77118339 69.73759496 -3.52740479 65.64044189 C-3.29314148 61.98546057 -3.29314148 61.98546057 -5.65240479 58.82794189 C-9.8794029 54.9606883 -12.41820815 52.99072015 -17.77740479 55.82794189 Z M44.41009521 84.14044189 C43.87556962 85.38464837 43.35800911 86.63615125 42.84759521 87.89044189 C42.55755615 88.58653564 42.26751709 89.28262939 41.96868896 89.99981689 C41.32181147 92.47876 41.49969695 93.76526877 42.41009521 96.14044189 C44.09260399 97.73174937 44.09260399 97.73174937 46.41009521 98.14044189 C48.70844507 97.01799196 50.59487403 95.95566308 52.41009521 94.14044189 C52.81487704 90.49740542 52.86834685 88.76235483 50.66009521 85.76544189 C48.33221746 83.75011486 48.33221746 83.75011486 44.41009521 84.14044189 Z M117.41009521 104.14044189 C115.74815448 107.46432336 115.79793583 109.46748559 116.41009521 113.14044189 C119.1293085 115.64917214 122.15806038 117.40135704 125.41009521 119.14044189 C126.11650146 119.52844971 126.82290771 119.91645752 127.55072021 120.31622314 C130.22951907 121.5036739 131.67457868 121.09787268 134.41009521 120.14044189 C137.27052704 118.05309975 138.25944805 116.87693912 138.97259521 113.39044189 C138.18459972 108.83757903 136.97847889 105.22743762 133.41009521 102.14044189 C127.80074391 100.89578823 122.55495532 101.62235896 117.41009521 104.14044189 Z M-42.58990479 116.14044189 C-45.09542786 119.89872651 -44.96186187 121.67695683 -44.58990479 126.14044189 C-43.35523013 130.25602408 -42.47460992 132.4715185 -39.02740479 135.07794189 C-34.45968754 136.48978177 -30.322844 137.00393855 -25.58990479 136.14044189 C-22.99868574 134.1306062 -22.99868574 134.1306062 -21.58990479 131.14044189 C-21.01240479 130.19169189 -20.43490479 129.24294189 -19.83990479 128.26544189 C-18.335653 124.50481244 -18.01595355 122.15810057 -18.58990479 118.14044189 C-20.64789286 114.69469174 -23.25019885 112.36691252 -26.58990479 110.14044189 C-32.82546474 108.92374727 -37.75341966 112.56527033 -42.58990479 116.14044189 Z M60.41009521 132.14044189 C58.0473756 137.38013226 56.23911915 142.62633945 54.60687256 148.13336182 C54.34469437 149.00578018 54.08251617 149.87819855 53.81239319 150.77705383 C52.95296897 153.64049999 52.09943059 156.50566324 51.24603271 159.37091064 C50.64770428 161.36924601 50.04903579 163.36747959 49.45004272 165.36561584 C48.19856015 169.54331737 46.94973155 173.72179908 45.70306396 177.90093994 C44.10481079 183.25866139 42.50219248 188.6150636 40.89787865 193.97097301 C39.36673265 199.08304435 37.83745292 204.19567325 36.30853271 209.30841064 C36.01677532 210.28370413 35.72501793 211.25899761 35.4244194 212.26384544 C34.60010892 215.02083074 33.77709104 217.77819824 32.95452881 220.53570557 C32.71036728 221.35189362 32.46620575 222.16808167 32.21464539 223.00900269 C31.87831337 224.13798729 31.87831337 224.13798729 31.53518677 225.28977966 C31.34089773 225.94069171 31.1466087 226.59160376 30.94643211 227.26224041 C30.39034185 229.20961632 29.90128281 231.17569152 29.41009521 233.14044189 C49.87009521 233.14044189 70.33009521 233.14044189 91.41009521 233.14044189 C90.16492838 227.53719114 88.93092979 222.26965335 87.25872803 216.82672119 C87.05349518 216.15527573 86.84826233 215.48383026 86.6368103 214.79203796 C85.96550758 212.59857456 85.28938101 210.40663083 84.61322021 208.21466064 C84.13688823 206.66127631 83.66088142 205.10779223 83.18518066 203.55421448 C81.93450417 199.47247138 80.67981255 195.39197403 79.4241333 191.31176758 C77.43192284 184.83525339 75.44652061 178.3566456 73.45957947 171.87851334 C72.74408407 169.54627454 72.02810833 167.2141836 71.31207275 164.8821106 C67.96650311 153.98157754 64.65869933 143.0703168 61.41009521 132.14044189 C61.08009521 132.14044189 60.75009521 132.14044189 60.41009521 132.14044189 Z M-17.21490479 171.32794189 C-18.62642822 171.68952393 -18.62642822 171.68952393 -20.06646729 172.05841064 C-23.04874653 173.33718982 -24.03797172 174.30927967 -25.58990479 177.14044189 C-26.31037151 179.8056923 -26.31037151 179.8056923 -26.52740479 182.64044189 C-26.63955322 183.57887939 -26.75170166 184.51731689 -26.86724854 185.48419189 C-26.81105206 188.2305706 -26.81105206 188.2305706 -24.97271729 190.28887939 C-22.28090094 192.38055308 -19.60773893 193.80734073 -16.52740479 195.26544189 C-13.37475976 196.76967055 -10.49987525 198.20046158 -7.58990479 200.14044189 C-3.7389149 200.14044189 -2.62820728 199.17787388 0.16009521 196.45294189 C2.61720215 193.56817394 3.1834064 190.90162578 3.41009521 187.14044189 C2.3989163 184.00606177 2.3989163 184.00606177 0.72259521 181.01544189 C-0.05664307 179.49563721 -0.05664307 179.49563721 -0.85162354 177.94512939 C-3.09260125 174.32934961 -4.87894288 171.72841089 -8.98834229 170.31622314 C-12.00328421 170.11251085 -14.30070775 170.53717493 -17.21490479 171.32794189 Z M124.09759521 195.76544189 C121.17043462 198.76508456 119.72044904 200.90583638 119.41009521 205.14044189 C120.79046386 208.03330743 120.79046386 208.03330743 123.41009521 210.14044189 C126.90749439 211.29527628 126.90749439 211.29527628 130.41009521 211.14044189 C133.37881784 208.97235329 133.99438298 206.79801164 134.66009521 203.26544189 C134.83025146 202.42239502 135.00040771 201.57934814 135.17572021 200.71075439 C135.42630594 197.96266424 135.07867238 195.80519946 134.41009521 193.14044189 C129.5539743 191.19799353 127.64422574 192.3530082 124.09759521 195.76544189 Z M127.41009521 228.14044189 C127.15978544 230.72424367 127.15978544 230.72424367 127.41009521 233.14044189 C129.06624179 233.52262957 130.73466546 233.85439291 132.41009521 234.14044189 C132.74009521 233.81044189 133.07009521 233.48044189 133.41009521 233.14044189 C133.12279466 230.80099454 132.79072742 228.46652759 132.41009521 226.14044189 C130.0865201 225.95554183 130.0865201 225.95554183 127.41009521 228.14044189 Z M-15.40240479 255.32794189 C-18.11017052 259.46084749 -19.21390212 264.10829526 -19.10943604 269.04669189 C-17.89666607 273.93424604 -13.74009066 277.69824405 -9.66802979 280.42950439 C-6.79788627 281.4113956 -5.45078387 281.17531893 -2.58990479 280.14044189 C-0.46492589 278.48290101 1.33868643 276.90689638 3.22259521 275.01544189 C3.72468506 274.55395752 4.2267749 274.09247314 4.74407959 273.61700439 C7.4584102 270.92852455 8.3821173 269.36822671 8.85150146 265.54669189 C8.45360145 262.47617141 7.99266422 260.45715691 6.53509521 257.76544189 C6.18704834 257.09770752 5.83900146 256.42997314 5.48040771 255.74200439 C4.4901755 253.97416455 4.4901755 253.97416455 2.41009521 253.14044189 C-6.89806645 252.46923085 -6.89806645 252.46923085 -15.40240479 255.32794189 Z M81.41009521 262.14044189 C80.32441018 263.98312057 80.32441018 263.98312057 80.41009521 266.14044189 C81.76410167 268.87026022 81.76410167 268.87026022 83.41009521 271.14044189 C88.99510088 270.94145482 88.99510088 270.94145482 93.41009521 268.14044189 C93.91020045 265.18275013 93.91020045 265.18275013 93.41009521 262.14044189 C91.75636025 260.15010548 91.75636025 260.15010548 89.41009521 259.14044189 C85.16114796 259.14044189 84.33704752 259.31441898 81.41009521 262.14044189 Z M122.41009521 262.14044189 C120.98227653 264.19614413 120.98227653 264.19614413 120.41009521 267.14044189 C121.28849155 270.0980802 122.48068434 272.72585752 124.41009521 275.14044189 C126.39390409 276.02891601 126.39390409 276.02891601 128.41009521 276.14044189 C130.87765538 274.49540179 131.35969821 273.33744837 132.09759521 270.45294189 C132.20072021 269.68981689 132.30384521 268.92669189 132.41009521 268.14044189 C131.31408352 267.13151058 130.20795604 266.13355965 129.09759521 265.14044189 C128.175271 264.30512939 128.175271 264.30512939 127.23431396 263.45294189 C125.37878187 261.84842692 125.37878187 261.84842692 122.41009521 262.14044189 Z M38.41009521 271.14044189 C38.24328412 274.05696363 38.24328412 274.05696363 38.41009521 277.14044189 C40.76962616 279.49997284 42.18905139 279.63185603 45.41009521 280.14044189 C46.42696567 275.36281551 46.42696567 275.36281551 45.47259521 270.70294189 C45.12197021 270.18731689 44.77134521 269.67169189 44.41009521 269.14044189 C41.94730721 269.14044189 40.55785403 269.99497053 38.41009521 271.14044189 Z M-58.58990479 277.14044189 C-61.0033683 282.38710171 -60.93026329 287.63674427 -59.40631104 293.12872314 C-58.06936761 296.42310526 -56.46551171 298.07750649 -53.58990479 300.14044189 C-49.13841216 301.8843256 -44.33981931 302.77376383 -39.58990479 302.14044189 C-35.80268163 299.76241805 -33.47010871 297.19772404 -31.58990479 293.14044189 C-31.1575396 290.67220914 -31.1575396 290.67220914 -31.58990479 288.14044189 C-33.26838861 286.29484297 -33.26838861 286.29484297 -35.58990479 284.82794189 C-39.82732355 281.7983543 -43.27500135 278.5009327 -46.76568604 274.64434814 C-51.12025701 271.05439134 -55.03235503 273.96958233 -58.58990479 277.14044189 Z M80.41009521 287.14044189 C79.75009521 287.80044189 79.09009521 288.46044189 78.41009521 289.14044189 C78.41009521 290.46044189 78.41009521 291.78044189 78.41009521 293.14044189 C80.35612796 293.73114203 80.35612796 293.73114203 82.41009521 294.14044189 C83.70643142 293.07399075 83.70643142 293.07399075 83.47259521 290.57794189 C83.45197021 289.77356689 83.43134521 288.96919189 83.41009521 288.14044189 C82.42009521 287.81044189 81.43009521 287.48044189 80.41009521 287.14044189 Z M-22.49224854 302.32403564 C-24.94745237 304.08820845 -24.94745237 304.08820845 -25.40240479 307.70294189 C-24.21761835 312.71549991 -22.89843532 315.2680882 -18.58990479 318.14044189 C-16.40962083 318.49337641 -16.40962083 318.49337641 -14.08990479 318.45294189 C-12.92974854 318.47807861 -12.92974854 318.47807861 -11.74615479 318.50372314 C-9.06232755 318.0515566 -8.2463225 317.26085614 -6.58990479 315.14044189 C-4.84404568 311.12496595 -3.99113623 308.29724015 -5.58990479 304.14044189 C-11.62627228 296.96205893 -14.97238739 297.55075118 -22.49224854 302.32403564 Z M-77.25396729 335.19122314 C-81.63067755 335.40222157 -83.96612456 335.72034501 -87.65240479 338.20294189 C-90.81127428 342.99219565 -91.62572271 347.063002 -91.52740479 352.76544189 C-89.62833843 359.60208078 -84.56959077 363.23109366 -78.77740479 366.76544189 C-78.15720459 367.15006592 -77.53700439 367.53468994 -76.89801025 367.93096924 C-75.13603176 369.01359741 -73.36406939 370.07795381 -71.58990479 371.14044189 C-70.79455322 371.63544189 -69.99920166 372.13044189 -69.17974854 372.64044189 C-65.45361111 374.77389632 -62.05167748 375.88413209 -57.74615479 375.08966064 C-51.95623892 372.54083898 -47.05223342 367.33393485 -43.58990479 362.14044189 C-42.55828356 354.23134581 -45.41351054 344.99223062 -49.77740479 338.39044189 C-51.39726863 336.29738699 -51.39726863 336.29738699 -52.58990479 335.14044189 C-54.02204688 335.04116969 -55.45901508 335.00964202 -56.89459229 335.00762939 C-58.22780518 335.00412476 -58.22780518 335.00412476 -59.58795166 335.00054932 C-65.47745068 335.03103637 -71.36502716 335.1096067 -77.25396729 335.19122314 Z " fill="#FEFEFE" transform="translate(151.58990478515625,178.85955810546875)"/>
<path d="M0 0 C2.73488185 2.73488185 3.57364562 5.94808692 4.8203125 9.52734375 C5.08383514 10.27206436 5.34735779 11.01678497 5.61886597 11.78407288 C6.17464842 13.35921599 6.72756514 14.93537276 7.27783203 16.51245117 C8.12138714 18.92715805 8.97600562 21.33773665 9.83203125 23.74804688 C10.37045886 25.27841126 10.90824102 26.80900292 11.4453125 28.33984375 C11.70152374 29.06179428 11.95773499 29.78374481 12.22171021 30.52757263 C13.2464904 33.48199872 14 35.84869625 14 39 C9.38 39 4.76 39 0 39 C0 26.13 0 13.26 0 0 Z " fill="#F3F7FD" transform="translate(390,460)"/>
</svg>
